<svg id="Flat" height="512" viewBox="0 0 512 512" width="512" xmlns="http://www.w3.org/2000/svg"><path d="m56 296h48a0 0 0 0 1 0 0v192a0 0 0 0 1 0 0h-48a32 32 0 0 1 -32-32v-128a32 32 0 0 1 32-32z" fill="#eb423f"/><path d="m104 296v48h-80v-16a32 32 0 0 1 32-32z" fill="#d13330"/><path d="m440 296h48a0 0 0 0 1 0 0v192a0 0 0 0 1 0 0h-48a32 32 0 0 1 -32-32v-128a32 32 0 0 1 32-32z" fill="#eb423f" transform="matrix(-1 0 0 -1 896 784)"/><path d="m408 296v48h80v-16a32 32 0 0 0 -32-32z" fill="#d13330"/><g fill="#1261a0"><path d="m376 40h48a16 16 0 0 1 16 16v384a0 0 0 0 1 0 0h-80a0 0 0 0 1 0 0v-384a16 16 0 0 1 16-16z"/><path d="m88 40h48a16 16 0 0 1 16 16v384a0 0 0 0 1 0 0h-80a0 0 0 0 1 0 0v-384a16 16 0 0 1 16-16z"/><path d="m328 56v64h-32v-48a16 16 0 0 0 -16-16h-48a16 16 0 0 0 -16 16v48h-32v-64a32 32 0 0 1 32-32h80a32 32 0 0 1 32 32z"/></g><path d="m136 104h240a64 64 0 0 1 64 64v288a32 32 0 0 1 -32 32h-304a32 32 0 0 1 -32-32v-288a64 64 0 0 1 64-64z" fill="#2d85cc"/><path d="m408 112.56v167.44a32 32 0 0 1 -32 32h-240a32 32 0 0 1 -32-32v-167.44a63.64 63.64 0 0 1 32-8.56h240a63.64 63.64 0 0 1 32 8.56z" fill="#eb423f"/><path d="m232 264h48v48h-48z" fill="#f7b030"/><path d="m232 312h48a0 0 0 0 1 0 0v16a16 16 0 0 1 -16 16h-16a16 16 0 0 1 -16-16v-16a0 0 0 0 1 0 0z" fill="#e09f2c"/><path d="m216 144h80v48h-80z" fill="#f7b030"/><path d="m296 232h-80a8 8 0 0 1 0-16h80a8 8 0 0 1 0 16z" fill="#f7b030"/><path d="m152 376h208a32 32 0 0 1 32 32v80a0 0 0 0 1 0 0h-272a0 0 0 0 1 0 0v-80a32 32 0 0 1 32-32z" fill="#eb423f"/><path d="m120 448h272v40h-272z" fill="#d13330"/></svg>